<?xml version="1.0" standalone="no"?>
<!DOCTYPE svg PUBLIC "-//W3C//DTD SVG 20010904//EN"
 "http://www.w3.org/TR/2001/REC-SVG-20010904/DTD/svg10.dtd">
<svg version="1.0" xmlns="http://www.w3.org/2000/svg"
 width="3840.000000pt" height="2160.000000pt" viewBox="0 0 3840.000000 2160.000000"
 preserveAspectRatio="xMidYMid meet">
<metadata>
Created by potrace 1.16, written by Peter Selinger 2001-2019
</metadata>
<g transform="translate(0.000000,2160.000000) scale(0.100000,-0.100000)"
fill="#000000" stroke="none">
<path d="M7770 10805 l0 -5755 1800 0 1800 0 0 5755 0 5755 -1800 0 -1800 0 0
-5755z"/>
<path d="M15522 15800 c-178 -24 -312 -93 -466 -239 -291 -278 -645 -836
-1067 -1681 -272 -545 -669 -1436 -669 -1502 0 -47 48 -97 93 -98 56 0 83 24
117 107 226 545 479 1098 709 1548 482 942 873 1495 1149 1622 82 39 210 57
299 44 140 -21 284 -92 422 -210 117 -99 277 -305 367 -473 l42 -78 -32 -18
c-17 -11 -61 -36 -98 -56 l-68 -38 312 -324 c171 -178 312 -323 313 -322 2 4
-68 942 -71 947 -2 2 -41 -18 -87 -43 -47 -25 -87 -46 -90 -46 -3 0 -24 35
-48 78 -96 176 -246 373 -375 491 -237 218 -510 323 -752 291z"/>
<path d="M23170 9950 l0 -4900 1800 0 1800 0 0 4900 0 4900 -1800 0 -1800 0 0
-4900z"/>
<path d="M15470 9155 l0 -4105 1800 0 1800 0 0 4105 0 4105 -1800 0 -1800 0 0
-4105z"/>
<path d="M11620 8120 l0 -3070 1800 0 1800 0 0 3070 0 3070 -1800 0 -1800 0 0
-3070z"/>
<path d="M19320 7155 l0 -2105 1800 0 1800 0 0 2105 0 2105 -1800 0 -1800 0 0
-2105z"/>
<path d="M27020 6065 l0 -1015 1800 0 1800 0 0 1015 0 1015 -1800 0 -1800 0 0
-1015z"/>
</g>
</svg>
