<?xml version="1.0" standalone="no"?>
<!DOCTYPE svg PUBLIC "-//W3C//DTD SVG 20010904//EN"
 "http://www.w3.org/TR/2001/REC-SVG-20010904/DTD/svg10.dtd">
<svg version="1.0" xmlns="http://www.w3.org/2000/svg"
 width="1196.000000pt" height="619.000000pt" viewBox="0 0 1196.000000 619.000000"
 preserveAspectRatio="xMidYMid meet">
<metadata>
Created by potrace 1.16, written by Peter Selinger 2001-2019
</metadata>
<g transform="translate(0.000000,619.000000) scale(0.100000,-0.100000)"
fill="#000000" stroke="none">
<path d="M7 3315 l3 -2875 895 0 895 0 3 2875 2 2875 -900 0 -900 0 2 -2875z"/>
<path d="M3802 5791 c-106 -39 -202 -132 -334 -322 -177 -255 -441 -767 -640
-1243 -52 -124 -55 -159 -18 -171 44 -14 55 2 130 178 274 644 566 1170 760
1367 81 82 124 103 217 108 64 4 80 1 135 -26 35 -16 86 -48 114 -71 54 -43
142 -152 188 -233 l27 -47 -50 -28 -50 -29 154 -160 c143 -147 154 -157 154
-129 0 17 -6 111 -14 210 -8 99 -15 193 -15 208 l0 28 -45 -27 c-25 -14 -47
-25 -49 -23 -1 2 -21 36 -43 74 -89 150 -225 280 -343 327 -78 31 -207 35
-278 9z"/>
<path d="M7710 2885 l0 -2445 895 0 895 0 0 2445 0 2445 -895 0 -895 0 0
-2445z"/>
<path d="M3857 2490 l3 -2050 895 0 895 0 3 2050 2 2050 -900 0 -900 0 2
-2050z"/>
<path d="M1930 1970 l0 -1535 900 0 900 0 0 1535 0 1535 -900 0 -900 0 0
-1535z"/>
<path d="M5780 1488 l0 -1053 900 0 900 0 0 1053 0 1052 -900 0 -900 0 0
-1052z"/>
<path d="M9630 943 l0 -508 900 0 900 0 0 508 0 507 -900 0 -900 0 0 -507z"/>
</g>
</svg>
